/* XPM */
static char *magick[] = {
/* columns rows colors chars-per-pixel */
"88 31 16 1",
"  c #050507",
". c #3e3e3c",
"X c #02565d",
"o c #5d6264",
"O c #068ba1",
"+ c #3a8e9c",
"@ c #7aaaac",
"# c #fe0436",
"$ c #fe496b",
"% c #fe7e9c",
"& c #979795",
"* c #feaec4",
"= c #fed2dc",
"- c #fefefc",
"; c Gray100",
": c None s None ",
/* pixels */
"---------------------------------------------------------------------------------------&",
"--------------------------------------------------------------------------------------& ",
"--::::::::::::::::::::::::::::::::::::::::::::::::::::::::###############:::::::::::::  ",
"--:::::::::::::::::::::::::::::::::::::::::::::::::::::::::###############::::::::::::  ",
"--::XXXXXXXXXXXXXXXXXXXXXXXXX:::::::::::::::::::::::::::::::###########$$##:::::::::::  ",
"--::XXXXXXXXXXXXXXXXXXXXXXXXX::::&  :::::::::::::::::::::::::##########*%###::::::::::  ",
"--::XXXXXXXXXXXXXXXXXXXXXXXXX::::.  o:::::::::::::::::::::::::#########**$$##:::::::::  ",
"--::XXXXXXXXX------XXXXXXXXXX:::: o..::ooo  &:.&::.&::::::::::::#####$$--=*$##::::::::  ",
"--::XXXXXXX--XX---X--XXXXXXXX:::o &o &:o o& .: .:o &:::::::::::::###*==-*$######::::::  ",
"--::XXXXXX-XXX+---XXX-XXXXXXX:::. :: o:o ::. :o :..:::::::::::::::##$$%=$########:::::  ",
"--::XXXXX-XXXX--@--XXX-XXXXXX::&      :o ::. :& o o::::::::::::::::###$=$#####%$#$::::  ",
"--::XXXX-XXXXX--+--XXXX-XXXXX::o &&&o &o ::. ::.  ::::::::::::::::::###%$#$###=$##$:::  ",
"--::XXXX-XXXX@--X--XXXX-XXXOX::  :::: oo ::. ::o .:::::::::::::::::::####*$###*=$%$#::  ",
"--::OXO-XXOOO--OO@--OXXX-XXXX::::::::::::::::::o &::::::::::::::::::::###$$#%%--=%$##:  ",
"--::OOO-OOOO+--OO+--OOOO-XOXO:::::::::::::::::.  ::::::::::::::::::::::####**=-%######  ",
"--::OOO-OOOO--OOOO---OOO-OOOO:::::::::::::::::&&:::::::::::::::::::::::::####%=$######  ",
"--::OOO-OOOO---------OOO-OOOO:::::::::::::::::::::::::::::::::::::::::::::###$=#######  ",
"--::OOO-OOO@---------OOO-OOOO:::&&&&&::::::::::::::::::::::::::::::::::::::###$#######  ",
"--::OOO-O+O--+OOOO+---+O-OOOO::&     .::::::::::::::::::::::::::::::::::::::##########  ",
"--::OOO+-+@--oooooo&--+-++OOO::& &::o &:::&:::&&::::::::::::&&&::::&&:::::&::#########  ",
"--::+o. - --.       :--- .oo+::& &::o &&   o&   o: .:o &: o&   o:&   &:o   &::########  ",
"--::   . ---.       :--      ::&     o:& .&& .:o &o :. o& &  &&&:  :o :o o&::::#######  ",
"--::      -          -       ::& o&&o && &:& &:: o& & ..o :&   o:     &o :::::::######  ",
"--::       --      --        ::& &::: o& &:& o:& o: . & .o::&&. & .&&&:o :::::::::####  ",
"--::         ------          ::& .oo  && &::  o  ::o o:  &:  o. &o o. :o ::::::::::###  ",
"--::                         ::&. . .&:&.&:::o..&::: &:o.:::o..&::o .&:o.:::::::::::##  ",
"--::                         ::::::::::::::::::::::::::::::::::::::::::::::::::::::::#  ",
"--::::::::::::::::::::::::::::::::::::::::::::::::::::::::::::::::::::::::::::::::::::  ",
"--::::::::::::::::::::::::::::::::::::::::::::::::::::::::::::::::::::::::::::::::::::  ",
"-&                                                                                      ",
"&                                                                                       "
};
